# xmcd CD database file
#
# Track frame offsets:
#	150
#	26097
#	48458
#	71315
#	90507
#	108004
#	118825
#	134489
#	148866
#	160175
#	179459
#	194313
#	214078
#	240483
#	255759
#	273604
#	296505
#
# Disc length: 4366 seconds
#
# Revision: 1
# Processed by: cddbd v1.5.2PL0 Copyright (c) Steve Scherf et al.
# Submitted via: CDex 1.81
#
DISCID=f6110c11
DTITLE=Vintage Jazz Band - Vintage Jazz Band with Jacques Gauthe and Malc Murphy
DYEAR=2003
DGENRE=Jazz
TTITLE0=Mama's Gone, Goodbye
TTITLE1=Zero
TTITLE2=Strollin' In the Moonlight
TTITLE3=Chant of the Tuxedos
TTITLE4=Down by the Riverside
TTITLE5=Bogalusa Strut
TTITLE6=Sing On
TTITLE7=Mobile Stomp
TTITLE8=Over In the Gloryland
TTITLE9=Careless Love
TTITLE10=Arkansas Blues
TTITLE11=Frankie and Johnny
TTITLE12=Nobody Knows the Way I Feel This Morning
TTITLE13=Jackass Blues
TTITLE14=San
TTITLE15=Limehouse Blues
TTITLE16=Somebody Stole My Gal
EXTD=YEAR: 2003
EXTT0=
EXTT1=
EXTT2=
EXTT3=
EXTT4=
EXTT5=
EXTT6=
EXTT7=
EXTT8=
EXTT9=
EXTT10=
EXTT11=
EXTT12=
EXTT13=
EXTT14=
EXTT15=
EXTT16=
PLAYORDER=
